# Blender v2.75 (sub 0) OBJ File: 'house3.blend'
# www.blender.org
mtllib house3.mtl
o Cube
v 1.000000 -1.000000 -1.000000
v 1.000000 -1.000000 1.000000
v -1.000000 -1.000000 1.000000
v -1.000000 -1.000000 -1.000000
v 1.000000 1.000000 -0.999999
v 0.999999 1.000000 1.000000
v -1.000000 1.000000 1.000000
v -1.000000 1.000000 -1.000000
v 1.154967 -1.000000 -1.154967
v 1.154967 -1.000000 1.154967
v -1.154967 -1.000000 -1.154968
v -1.154968 -1.000000 1.154967
v 1.154967 -1.319337 -1.154967
v 1.154967 -1.319337 1.154967
v -1.154967 -1.319337 -1.154968
v -1.154968 -1.319337 1.154967
v 1.118940 1.000000 -1.118939
v 1.118939 1.000000 1.118940
v -1.118939 1.000000 -1.118940
v -1.118940 1.000000 1.118939
v 1.118940 1.114549 -1.118939
v 1.118939 1.114549 1.118940
v -1.118939 1.114549 -1.118940
v -1.118940 1.114549 1.118939
v 1.000000 -1.000000 1.000000
v -1.000000 -1.000000 1.000000
v 0.999999 1.000000 1.000001
v -1.000000 1.000000 1.000000
v 0.969754 1.114549 -0.969753
v 0.969753 1.114549 0.969754
v -0.969754 1.114549 -0.969754
v -0.969754 1.114549 0.969753
v 1.000000 -1.004313 -0.430753
v 1.000000 -1.004313 0.405590
v 1.000000 0.122836 -0.430753
v 1.000000 0.122836 0.405590
v 1.151409 -1.004313 -0.430753
v 1.151409 -1.004313 0.405590
v 1.151409 0.122836 -0.430753
v 1.151408 0.122836 0.405590
v 1.151409 -0.906303 -0.358030
v 1.151409 -0.906303 0.332867
v 1.151409 0.024827 -0.358030
v 1.151408 0.024827 0.332867
v 0.975815 -0.906303 -0.358030
v 0.975815 -0.906303 0.332867
v 0.975815 0.024827 -0.358030
v 0.975814 0.024827 0.332867
v -1.000000 -0.634030 0.634029
v -1.000000 -0.634030 -0.634030
v -1.000000 0.634030 0.634029
v -1.000000 0.634030 -0.634030
v -1.095109 -0.634030 0.634029
v -1.095109 -0.634030 -0.634030
v -1.095109 0.634030 0.634029
v -1.095109 0.634030 -0.634030
v -1.095109 -0.488603 0.488603
v -1.095109 -0.488603 -0.488603
v -1.095109 0.488603 0.488603
v -1.095109 0.488603 -0.488603
v -0.892269 -0.488603 0.488603
v -0.892269 -0.488603 -0.488603
v -0.892269 0.488603 0.488603
v -0.892269 0.488603 -0.488603
v 1.000000 0.646578 -0.589413
v 1.000000 0.646578 0.584216
v 1.000000 0.031405 -0.255371
v 1.000000 0.031405 0.235407
v 1.341041 -1.004313 -0.430753
v 1.341041 -1.004313 0.405590
v 1.341041 -0.906303 -0.358030
v 1.341041 -0.906303 0.332867
v 1.151409 -1.316723 -0.430753
v 1.151409 -1.316723 0.405590
v 1.341041 -1.316723 -0.430753
v 1.341041 -1.316723 0.405590
v 1.475166 -1.004313 -0.430753
v 1.475166 -1.004313 0.405590
v 1.475166 -1.316723 -0.430753
v 1.475166 -1.316723 0.405590
v -1.014217 1.114549 1.014216
v -1.014216 1.114549 -1.014216
v 1.014216 1.114549 1.014217
v 1.014217 1.114549 -1.014216
v -0.000000 1.970483 0.000000
v 1.000000 -1.000000 1.000000
v -1.000000 -1.000000 1.000000
v 0.999999 1.000000 1.000001
v -1.000000 1.000000 1.000000
v 1.000000 -1.000000 -1.000000
v 1.000000 1.000000 -0.999999
v 1.000000 -1.000000 1.000000
v 0.999999 1.000000 1.000000
v 1.000000 -1.004313 -0.430753
v 1.000000 0.122836 -0.430753
v 1.000000 -1.004313 0.405590
v 1.000000 0.122836 0.405590
v 0.990826 0.122836 -0.314422
v 0.990825 0.122836 0.289260
v 1.100114 0.122836 -0.314422
v 1.100114 0.122836 0.289260
v 0.990826 0.283945 -0.314422
v 0.990825 0.283945 0.289260
v 1.100114 0.283945 -0.314422
v 1.100114 0.283945 0.289260
v 0.964943 0.283945 -0.457395
v 0.964942 0.283945 0.432233
v 1.125998 0.283945 -0.457395
v 1.125997 0.283945 0.432233
v 0.964943 0.511789 -0.457395
v 0.964942 0.511789 0.432233
v 1.125998 0.511789 -0.457395
v 1.125997 0.511789 0.432233
vn 0.000000 0.000000 1.000000
vn -1.000000 0.000000 -0.000000
vn 0.000000 0.000000 -1.000000
vn 0.000000 -1.000000 0.000000
vn 0.000000 1.000000 0.000000
vn 1.000000 0.000000 0.000000
vn 0.000000 0.595900 -0.803100
vn 0.000000 0.595900 0.803100
vn 0.000000 0.764200 -0.645000
vn -0.645000 0.764200 -0.000000
vn 0.645000 0.764200 0.000000
vn -0.000000 0.764200 0.645000
usemtl house3_Main
s off
f 2//1 6//1 27//1 25//1
f 7//2 8//2 52//2 51//2
f 5//3 1//3 4//3 8//3
f 27//1 28//1 89//1 88//1
f 3//4 2//4 25//4 26//4
f 6//5 7//5 28//5 27//5
f 7//1 3//1 26//1 28//1
f 2//2 1//2 33//2 34//2
f 34//4 33//4 37//4 38//4
f 8//2 4//2 50//2 52//2
f 4//2 3//2 49//2 50//2
f 3//2 7//2 51//2 49//2
f 38//2 37//2 73//2 74//2
f 86//1 88//1 89//1 87//1
f 25//1 27//1 88//1 86//1
f 28//1 26//1 87//1 89//1
f 26//1 25//1 86//1 87//1
f 2//1 34//1 96//1 92//1
f 93//6 92//6 96//6 97//6 95//6 94//6 90//6 91//6
f 33//1 1//1 90//1 94//1
f 6//1 2//1 92//1 93//1
f 1//1 5//1 91//1 90//1
usemtl house3_Decor
f 1//5 2//5 10//5 9//5
f 8//4 7//4 20//4 19//4
f 12//2 11//2 15//2 16//2
f 3//5 4//5 11//5 12//5
f 2//5 3//5 12//5 10//5
f 4//5 1//5 9//5 11//5
f 13//4 14//4 16//4 15//4
f 11//3 9//3 13//3 15//3
f 10//1 12//1 16//1 14//1
f 9//6 10//6 14//6 13//6
f 19//2 20//2 24//2 23//2
f 5//4 8//4 19//4 17//4
f 7//4 6//4 18//4 20//4
f 6//4 5//4 17//4 18//4
f 17//3 19//3 23//3 21//3
f 20//1 18//1 22//1 24//1
f 18//6 17//6 21//6 22//6
f 39//5 35//5 98//5 100//5
f 37//6 39//6 43//6 41//6
f 33//3 35//3 39//3 37//3
f 36//1 34//1 38//1 40//1
f 44//3 42//3 46//3 48//3
f 40//6 38//6 42//6 44//6
f 41//5 42//5 72//5 71//5
f 39//6 40//6 44//6 43//6
f 42//5 41//5 45//5 46//5
f 43//4 44//4 48//4 47//4
f 41//1 43//1 47//1 45//1
f 50//4 49//4 53//4 54//4
f 55//2 56//2 60//2 59//2
f 51//5 52//5 56//5 55//5
f 49//1 51//1 55//1 53//1
f 52//3 50//3 54//3 56//3
f 60//1 58//1 62//1 64//1
f 53//2 55//2 59//2 57//2
f 56//2 54//2 58//2 60//2
f 54//2 53//2 57//2 58//2
f 58//5 57//5 61//5 62//5
f 59//4 60//4 64//4 63//4
f 57//3 59//3 63//3 61//3
f 70//6 69//6 71//6 72//6
f 37//7 41//7 71//7 69//7
f 70//1 38//1 74//1 76//1
f 42//8 38//8 70//8 72//8
f 74//4 73//4 75//4 76//4
f 37//3 69//3 75//3 73//3
f 75//3 69//3 77//3 79//3
f 77//6 78//6 80//6 79//6
f 70//1 76//1 80//1 78//1
f 69//5 70//5 78//5 77//5
f 76//4 75//4 79//4 80//4
f 22//5 21//5 84//5 83//5
f 21//5 23//5 82//5 84//5
f 24//5 22//5 83//5 81//5
f 23//5 24//5 81//5 82//5
f 34//1 36//1 97//1 96//1
f 5//1 6//1 93//1 91//1
f 36//1 35//1 95//1 97//1
f 35//1 33//1 94//1 95//1
f 100//3 98//3 102//3 104//3
f 40//5 39//5 100//5 101//5
f 35//4 36//4 99//4 98//4
f 36//5 40//5 101//5 99//5
f 103//4 105//4 109//4 107//4
f 101//6 100//6 104//6 105//6
f 99//1 101//1 105//1 103//1
f 98//2 99//2 103//2 102//2
f 108//3 106//3 110//3 112//3
f 102//4 103//4 107//4 106//4
f 104//4 102//4 106//4 108//4
f 105//4 104//4 108//4 109//4
f 110//5 111//5 113//5 112//5
f 109//6 108//6 112//6 113//6
f 107//1 109//1 113//1 111//1
f 106//2 107//2 111//2 110//2
usemtl house3_Window
f 61//2 63//2 64//2 62//2
usemtl house3_Door
f 45//6 47//6 48//6 46//6
usemtl house3_Top
f 84//9 82//9 85//9
f 82//10 81//10 85//10
f 83//11 84//11 85//11
f 81//12 83//12 85//12
l 23 31
l 29 21
l 22 30
l 32 24
l 36 68
l 66 6
l 35 67
l 5 65
