# Blender v2.75 (sub 0) OBJ File: 'house1.blend'
# www.blender.org
mtllib house1.mtl
o Cube
v 1.000000 -1.000000 -1.000000
v 1.000000 -1.000000 1.000000
v -1.000000 -1.000000 1.000000
v -1.000000 -1.000000 -1.000000
v 1.000000 1.000000 -0.999999
v 0.999999 1.000000 1.000001
v -1.000000 1.000000 1.000000
v -1.000000 1.000000 -1.000000
v 1.154967 -1.000000 -1.154967
v 1.154967 -1.000000 1.154967
v -1.154967 -1.000000 -1.154968
v -1.154968 -1.000000 1.154967
v 1.154967 -1.319337 -1.154967
v 1.154967 -1.319337 1.154967
v -1.154967 -1.319337 -1.154968
v -1.154968 -1.319337 1.154967
v 1.118940 1.000000 -1.118939
v 1.118939 1.000000 1.118940
v -1.118939 1.000000 -1.118940
v -1.118940 1.000000 1.118939
v 1.118940 1.114549 -1.118939
v 1.118939 1.114549 1.118940
v -1.118939 1.114549 -1.118940
v -1.118940 1.114549 1.118939
v 1.000000 -1.000000 1.000000
v -1.000000 -1.000000 1.000000
v 0.999999 1.000000 1.000001
v -1.000000 1.000000 1.000000
v 0.969754 1.114549 -0.969753
v 0.969753 1.114549 0.969754
v -0.969754 1.114549 -0.969754
v -0.969754 1.114549 0.969753
v 0.969754 2.821156 -0.969753
v 0.969753 2.821156 0.969754
v -0.969754 2.821156 -0.969754
v -0.969754 2.821156 0.969753
v 1.120977 2.821156 -1.120976
v 1.120976 2.754717 1.120977
v -1.120976 2.821156 -1.120977
v -1.120977 2.821156 1.120976
v 1.120977 2.959826 -1.120976
v 1.120976 2.893387 1.120977
v -1.120976 2.959826 -1.120977
v -1.120977 2.959826 1.120976
v 0.057856 3.700502 -0.057856
v 0.057856 3.700502 0.057857
v -0.057856 3.700502 -0.057856
v -0.057856 3.700502 0.057857
v 1.257431 2.832758 -0.933394
v 1.257430 2.766320 0.933395
v 1.257431 2.948224 -0.933394
v 1.257430 2.881785 0.933395
v 0.983228 2.763237 1.280308
v -0.983229 2.829676 1.280307
v 0.983228 2.884867 1.280308
v -0.983229 2.951306 1.280307
v -1.283191 2.830482 0.970187
v -1.283190 2.830482 -0.970188
v -1.283191 2.950499 0.970187
v -1.283190 2.950499 -0.970188
v 0.960969 2.831053 -1.273183
v -0.960968 2.831053 -1.273183
v 0.960969 2.949929 -1.273183
v -0.960968 2.949929 -1.273183
v 1.334126 2.754717 1.290155
v 1.334126 2.893387 1.290155
v 1.470580 2.766320 1.102572
v 1.470580 2.881785 1.102572
v 1.196378 2.763237 1.449486
v 1.196378 2.884867 1.449486
v -1.255118 2.959826 1.250368
v -1.255118 2.821156 1.250368
v -1.117370 2.951306 1.409699
v -1.117370 2.829676 1.409699
v -1.417332 2.950499 1.099579
v -1.417332 2.830482 1.099579
v -1.251386 2.959826 -1.259659
v -1.251386 2.821156 -1.259659
v -1.413600 2.950499 -1.108870
v -1.413600 2.830482 -1.108870
v -1.091378 2.949929 -1.411865
v -1.091378 2.831053 -1.411865
v 1.277893 2.821156 -1.258502
v 1.277893 2.959826 -1.258502
v 1.414347 2.832758 -1.070920
v 1.414347 2.948224 -1.070920
v 1.117885 2.831053 -1.410709
v 1.117885 2.949929 -1.410709
v 0.969754 1.475039 -0.560067
v 0.969753 1.475039 0.560068
v 0.969754 2.460666 -0.560067
v 0.969753 2.460666 0.560068
v 1.120730 1.475039 -0.560067
v 1.120730 1.475039 0.560068
v 1.120730 2.460666 -0.560067
v 1.120730 2.460666 0.560068
v 1.120730 1.605845 -0.411410
v 1.120730 1.605845 0.411411
v 1.120730 2.329859 -0.411410
v 1.120730 2.329859 0.411411
v 0.947725 1.605845 -0.411410
v 0.947724 1.605845 0.411411
v 0.947725 2.329859 -0.411410
v 0.947724 2.329859 0.411411
v 1.000000 -1.004313 -0.430753
v 1.000000 -1.004313 0.405590
v 1.000000 0.122836 -0.430753
v 1.000000 0.122836 0.405590
v 1.151409 -1.004313 -0.430753
v 1.151409 -1.004313 0.405590
v 1.151409 0.122836 -0.430753
v 1.151408 0.122836 0.405590
v 1.151409 -0.906303 -0.358030
v 1.151409 -0.906303 0.332867
v 1.151409 0.024827 -0.358030
v 1.151408 0.024827 0.332867
v 0.975815 -0.906303 -0.358030
v 0.975815 -0.906303 0.332867
v 0.975815 0.024827 -0.358030
v 0.975814 0.024827 0.332867
v -0.969754 1.415571 0.627651
v -0.969754 1.415571 -0.627652
v -0.969754 2.520134 0.627651
v -0.969754 2.520134 -0.627652
v -1.066298 1.415571 0.627651
v -1.066297 1.415571 -0.627652
v -1.066298 2.520134 0.627651
v -1.066297 2.520134 -0.627652
v -1.066298 1.544871 0.480705
v -1.066297 1.544871 -0.480706
v -1.066298 2.390834 0.480705
v -1.066297 2.390834 -0.480706
v -0.901300 1.544871 0.480705
v -0.901299 1.544871 -0.480706
v -0.901300 2.390834 0.480705
v -0.901299 2.390834 -0.480706
v -1.000000 -0.634030 0.634029
v -1.000000 -0.634030 -0.634030
v -1.000000 0.634030 0.634029
v -1.000000 0.634030 -0.634030
v -1.095109 -0.634030 0.634029
v -1.095109 -0.634030 -0.634030
v -1.095109 0.634030 0.634029
v -1.095109 0.634030 -0.634030
v -1.095109 -0.488603 0.488603
v -1.095109 -0.488603 -0.488603
v -1.095109 0.488603 0.488603
v -1.095109 0.488603 -0.488603
v -0.892269 -0.488603 0.488603
v -0.892269 -0.488603 -0.488603
v -0.892269 0.488603 0.488603
v -0.892269 0.488603 -0.488603
v 1.000000 0.646578 -0.589413
v 1.000000 0.646578 0.584216
v 1.000000 0.131846 -0.255371
v 1.000000 0.131846 0.235407
v 1.396609 0.380729 -0.303395
v 1.396609 0.380729 0.294577
v 1.396609 0.118469 -0.133199
v 1.396609 0.118469 0.116856
v 1.341041 -1.004313 -0.430753
v 1.341041 -1.004313 0.405590
v 1.341041 -0.906303 -0.358030
v 1.341041 -0.906303 0.332867
v 1.151409 -1.316723 -0.430753
v 1.151409 -1.316723 0.405590
v 1.341041 -1.316723 -0.430753
v 1.341041 -1.316723 0.405590
v 1.475166 -1.004313 -0.430753
v 1.475166 -1.004313 0.405590
v 1.475166 -1.316723 -0.430753
v 1.475166 -1.316723 0.405590
vn 1.000000 0.000000 -0.000000
vn 0.000000 0.000000 1.000000
vn -1.000000 0.000000 -0.000000
vn 0.000000 0.000000 -1.000000
vn 0.000000 -1.000000 0.000000
vn 0.000000 1.000000 0.000000
vn -0.015500 -0.976600 -0.214500
vn -0.031500 -0.998100 0.053400
vn -0.214500 -0.976600 -0.015500
vn 0.084700 -0.995900 -0.032200
vn -0.029300 0.999100 -0.030300
vn 0.000000 0.997900 -0.064900
vn -0.029600 -0.999000 -0.033800
vn 0.031100 -0.998700 -0.039200
vn 0.084700 0.995900 0.032200
vn 0.694300 0.000000 0.719700
vn 0.031100 0.998700 -0.039200
vn 0.031500 0.998100 0.053400
vn -0.057400 0.998400 0.000000
vn -0.057400 -0.998400 -0.000000
vn 0.032600 -0.999000 -0.030700
vn 0.659100 0.000000 0.752000
vn 0.000000 -0.997900 -0.064900
vn -0.030700 0.999100 0.028800
vn 0.808700 0.000000 0.588300
vn 0.756500 0.000000 0.654000
vn -0.025100 -0.999200 0.031700
vn -0.621700 0.000000 0.783300
vn -0.025100 0.999200 0.031700
vn 0.621700 0.000000 -0.783300
vn -0.680800 0.000000 0.732400
vn -0.756500 0.000000 0.654000
vn -0.694300 0.000000 -0.719700
vn 0.028100 0.999200 0.029100
vn -0.029300 -0.999100 -0.030300
vn 0.028100 -0.999200 0.029100
vn -0.680800 0.000000 -0.732400
vn -0.689200 0.000000 -0.724500
vn 0.032600 0.999000 -0.030700
vn 0.728500 0.000000 -0.685000
vn -0.030700 -0.999100 0.028800
vn -0.728500 0.000000 0.685000
vn 0.808700 0.000000 -0.588300
vn 0.689200 0.000000 -0.724500
vn -0.029600 0.999000 -0.033800
vn 0.033100 0.998700 0.037700
vn 0.033100 -0.998700 0.037700
vn -0.659100 0.000000 -0.752000
vn -0.033700 -0.999400 -0.000000
vn 0.222800 -0.546900 0.807000
vn 0.556800 0.830700 0.000000
vn 0.233400 -0.529300 -0.815700
vn 0.000000 0.595900 -0.803100
vn 0.000000 0.595900 0.803100
vn -0.571600 0.820500 0.000000
vn 0.000000 0.820500 -0.571600
vn 0.022800 0.808300 0.588400
vn 0.588400 0.808300 0.022800
usemtl house1_Main
s off
f 6//1 2//1 106//1 108//1
f 2//2 6//2 27//2 25//2
f 7//3 8//3 140//3 139//3
f 5//4 1//4 4//4 8//4
f 6//5 5//5 17//5 18//5
f 25//2 27//2 28//2 26//2
f 3//2 2//2 25//2 26//2
f 6//2 7//2 28//2 27//2
f 7//2 3//2 26//2 28//2
f 31//3 32//3 121//3 122//3
f 29//4 31//4 35//4 33//4
f 32//2 30//2 34//2 36//2
f 29//1 33//1 91//1 89//1
f 33//1 34//1 92//1 91//1
f 34//1 30//1 90//1 92//1
f 30//1 29//1 89//1 90//1
f 1//1 5//1 107//1 105//1
f 2//3 1//3 105//3 106//3
f 6//1 108//1 156//1 154//1
f 106//5 105//5 109//5 110//5
f 32//3 36//3 123//3 121//3
f 35//3 31//3 122//3 124//3
f 36//3 35//3 124//3 123//3
f 8//3 4//3 138//3 140//3
f 4//3 3//3 137//3 138//3
f 3//3 7//3 139//3 137//3
f 108//1 107//1 155//1 156//1
f 107//1 5//1 153//1 155//1
f 5//1 6//1 154//1 153//1
f 110//3 109//3 165//3 166//3
usemtl house1_Decor
f 1//6 2//6 10//6 9//6
f 8//5 7//5 20//5 19//5
f 12//3 11//3 15//3 16//3
f 3//6 4//6 11//6 12//6
f 2//6 3//6 12//6 10//6
f 4//6 1//6 9//6 11//6
f 13//5 14//5 16//5 15//5
f 11//4 9//4 13//4 15//4
f 10//2 12//2 16//2 14//2
f 9//1 10//1 14//1 13//1
f 19//3 20//3 24//3 23//3
f 5//5 8//5 19//5 17//5
f 7//5 6//5 18//5 20//5
f 21//6 23//6 31//6 29//6
f 17//4 19//4 23//4 21//4
f 20//2 18//2 22//2 24//2
f 18//1 17//1 21//1 22//1
f 24//6 22//6 30//6 32//6
f 22//6 21//6 29//6 30//6
f 23//6 24//6 32//6 31//6
f 36//7 34//7 38//7 40//7
f 40//8 38//8 53//8 54//8
f 34//9 33//9 37//9 38//9
f 35//5 36//5 40//5 39//5
f 33//5 35//5 39//5 37//5
f 38//10 37//10 49//10 50//10
f 44//11 59//11 75//11 71//11
f 43//12 41//12 63//12 64//12
f 50//1 49//1 51//1 52//1
f 37//13 61//13 87//13 83//13
f 38//14 50//14 67//14 65//14
f 41//15 42//15 52//15 51//15
f 54//2 53//2 55//2 56//2
f 54//16 56//16 73//16 74//16
f 52//17 42//17 66//17 68//17
f 42//18 44//18 56//18 55//18
f 58//3 57//3 59//3 60//3
f 44//19 43//19 60//19 59//19
f 39//20 40//20 57//20 58//20
f 62//21 39//21 78//21 82//21
f 61//4 62//4 64//4 63//4
f 51//22 49//22 85//22 86//22
f 37//23 39//23 62//23 61//23
f 60//24 43//24 77//24 79//24
f 66//25 65//25 67//25 68//25
f 65//26 66//26 70//26 69//26
f 53//27 38//27 65//27 69//27
f 55//28 53//28 69//28 70//28
f 42//29 55//29 70//29 66//29
f 50//30 52//30 68//30 67//30
f 72//31 71//31 75//31 76//31
f 71//32 72//32 74//32 73//32
f 59//33 57//33 76//33 75//33
f 56//34 44//34 71//34 73//34
f 57//35 40//35 72//35 76//35
f 40//36 54//36 74//36 72//36
f 77//37 78//37 80//37 79//37
f 78//38 77//38 81//38 82//38
f 43//39 64//39 81//39 77//39
f 64//40 62//40 82//40 81//40
f 39//41 58//41 80//41 78//41
f 58//42 60//42 79//42 80//42
f 83//43 84//43 86//43 85//43
f 84//44 83//44 87//44 88//44
f 63//45 41//45 84//45 88//45
f 41//46 51//46 86//46 84//46
f 49//47 37//47 83//47 85//47
f 61//48 63//48 88//48 87//48
f 89//4 91//4 95//4 93//4
f 94//1 93//1 97//1 98//1
f 90//5 89//5 93//5 94//5
f 92//2 90//2 94//2 96//2
f 91//6 92//6 96//6 95//6
f 100//4 98//4 102//4 104//4
f 96//1 94//1 98//1 100//1
f 95//1 96//1 100//1 99//1
f 93//1 95//1 99//1 97//1
f 99//5 100//5 104//5 103//5
f 97//2 99//2 103//2 101//2
f 98//6 97//6 101//6 102//6
f 107//6 108//6 112//6 111//6
f 109//1 111//1 115//1 113//1
f 105//4 107//4 111//4 109//4
f 108//2 106//2 110//2 112//2
f 116//4 114//4 118//4 120//4
f 112//1 110//1 114//1 116//1
f 113//6 114//6 164//6 163//6
f 111//1 112//1 116//1 115//1
f 114//6 113//6 117//6 118//6
f 115//5 116//5 120//5 119//5
f 113//2 115//2 119//2 117//2
f 121//2 123//2 127//2 125//2
f 125//3 127//3 131//3 129//3
f 122//5 121//5 125//5 126//5
f 124//4 122//4 126//4 128//4
f 123//6 124//6 128//6 127//6
f 132//2 130//2 134//2 136//2
f 126//3 125//3 129//3 130//3
f 128//3 126//3 130//3 132//3
f 127//3 128//3 132//3 131//3
f 131//5 132//5 136//5 135//5
f 129//4 131//4 135//4 133//4
f 130//6 129//6 133//6 134//6
f 138//5 137//5 141//5 142//5
f 143//3 144//3 148//3 147//3
f 139//6 140//6 144//6 143//6
f 137//2 139//2 143//2 141//2
f 140//4 138//4 142//4 144//4
f 148//2 146//2 150//2 152//2
f 141//3 143//3 147//3 145//3
f 144//3 142//3 146//3 148//3
f 142//3 141//3 145//3 146//3
f 146//6 145//6 149//6 150//6
f 147//5 148//5 152//5 151//5
f 145//4 147//4 151//4 149//4
f 156//49 155//49 159//49 160//49
f 157//1 158//1 160//1 159//1
f 154//50 156//50 160//50 158//50
f 153//51 154//51 158//51 157//51
f 155//52 153//52 157//52 159//52
f 162//1 161//1 163//1 164//1
f 109//53 113//53 163//53 161//53
f 162//2 110//2 166//2 168//2
f 114//54 110//54 162//54 164//54
f 166//5 165//5 167//5 168//5
f 109//4 161//4 167//4 165//4
f 167//4 161//4 169//4 171//4
f 169//1 170//1 172//1 171//1
f 162//2 168//2 172//2 170//2
f 161//6 162//6 170//6 169//6
f 168//5 167//5 171//5 172//5
usemtl house1_Window
f 102//1 101//1 103//1 104//1
f 134//3 133//3 135//3 136//3
f 149//3 151//3 152//3 150//3
usemtl house1_Door
f 117//1 119//1 120//1 118//1
usemtl house1_Top
f 43//55 44//55 48//55 47//55
f 45//6 47//6 48//6 46//6
f 41//56 43//56 47//56 45//56
f 44//57 42//57 46//57 48//57
f 42//58 41//58 45//58 46//58
