# Blender v2.75 (sub 0) OBJ File: 'player.blend'
# www.blender.org
mtllib player.mtl
o Cube.004_Cube.001
v 1.099360 -0.375744 0.035746
v 1.099360 -1.075743 0.035746
v 1.099360 -0.375744 -0.664254
v 1.099360 -1.075743 -0.664254
v 0.399360 -0.375743 0.035746
v 0.399360 -1.075743 0.035746
v 0.399360 -0.375743 -0.664254
v 0.399360 -1.075743 -0.664254
v 1.099360 -0.533474 -0.121985
v 1.099360 -0.918013 -0.121985
v 1.099360 -0.918013 -0.506523
v 1.099360 -0.533474 -0.506523
v 1.008960 -0.533474 -0.121985
v 1.008960 -0.918013 -0.121985
v 1.008960 -0.918013 -0.506523
v 1.008960 -0.533474 -0.506523
vn 1.000000 0.000000 0.000000
vn 0.000000 0.000000 -1.000000
vn -1.000000 0.000000 0.000000
vn -0.000000 0.000000 1.000000
vn 0.000000 1.000000 0.000000
vn 0.000000 -1.000000 0.000000
usemtl playerWheel_Main
s off
f 3//1 1//1 9//1 12//1
f 4//2 8//2 7//2 3//2
f 8//3 6//3 5//3 7//3
f 6//4 2//4 1//4 5//4
f 1//5 3//5 7//5 5//5
f 6//6 8//6 4//6 2//6
f 11//4 12//4 16//4 15//4
f 2//1 4//1 11//1 10//1
f 4//1 3//1 12//1 11//1
f 1//1 2//1 10//1 9//1
f 9//2 10//2 14//2 13//2
f 12//6 9//6 13//6 16//6
f 10//5 11//5 15//5 14//5
usemtl playerWheel_Inner
f 14//1 15//1 16//1 13//1
o Cube.003_Cube.001
v 1.099360 -0.375744 2.037965
v 1.099360 -1.075743 2.037965
v 1.099360 -0.375744 1.337965
v 1.099360 -1.075743 1.337965
v 0.399360 -0.375743 2.037965
v 0.399360 -1.075743 2.037965
v 0.399360 -0.375743 1.337965
v 0.399360 -1.075743 1.337965
v 1.099360 -0.533474 1.880234
v 1.099360 -0.918013 1.880234
v 1.099360 -0.918013 1.495696
v 1.099360 -0.533474 1.495696
v 1.008960 -0.533474 1.880234
v 1.008960 -0.918013 1.880234
v 1.008960 -0.918013 1.495696
v 1.008960 -0.533474 1.495696
vn 1.000000 0.000000 0.000000
vn 0.000000 0.000000 -1.000000
vn -1.000000 0.000000 0.000000
vn -0.000000 0.000000 1.000000
vn 0.000000 1.000000 0.000000
vn 0.000000 -1.000000 0.000000
usemtl playerWheel_Main
s off
f 19//7 17//7 25//7 28//7
f 20//8 24//8 23//8 19//8
f 24//9 22//9 21//9 23//9
f 22//10 18//10 17//10 21//10
f 17//11 19//11 23//11 21//11
f 22//12 24//12 20//12 18//12
f 27//10 28//10 32//10 31//10
f 18//7 20//7 27//7 26//7
f 20//7 19//7 28//7 27//7
f 17//7 18//7 26//7 25//7
f 25//8 26//8 30//8 29//8
f 28//12 25//12 29//12 32//12
f 26//11 27//11 31//11 30//11
usemtl playerWheel_Inner
f 30//7 31//7 32//7 29//7
o Cube.002_Cube.001
v -1.099359 -1.075743 2.037965
v -1.099359 -0.375743 2.037965
v -1.099359 -1.075743 1.337965
v -1.099359 -0.375743 1.337965
v -0.399359 -1.075743 2.037965
v -0.399359 -0.375743 2.037965
v -0.399359 -1.075743 1.337965
v -0.399359 -0.375743 1.337965
v -1.099359 -0.918012 1.880234
v -1.099359 -0.533474 1.880234
v -1.099359 -0.533474 1.495696
v -1.099359 -0.918012 1.495696
v -1.008959 -0.918012 1.880234
v -1.008959 -0.533474 1.880234
v -1.008959 -0.533474 1.495696
v -1.008959 -0.918012 1.495696
vn -1.000000 0.000000 0.000000
vn 0.000000 0.000000 -1.000000
vn 1.000000 0.000000 0.000000
vn 0.000000 0.000000 1.000000
vn 0.000000 -1.000000 0.000000
vn 0.000000 1.000000 0.000000
usemtl playerWheel_Main
s off
f 35//13 33//13 41//13 44//13
f 36//14 40//14 39//14 35//14
f 40//15 38//15 37//15 39//15
f 38//16 34//16 33//16 37//16
f 33//17 35//17 39//17 37//17
f 38//18 40//18 36//18 34//18
f 43//16 44//16 48//16 47//16
f 34//13 36//13 43//13 42//13
f 36//13 35//13 44//13 43//13
f 33//13 34//13 42//13 41//13
f 41//14 42//14 46//14 45//14
f 44//18 41//18 45//18 48//18
f 42//17 43//17 47//17 46//17
usemtl playerWheel_Inner
f 46//13 47//13 48//13 45//13
o Cube.001
v -1.099359 -1.075743 0.035746
v -1.099359 -0.375743 0.035746
v -1.099359 -1.075743 -0.664254
v -1.099359 -0.375743 -0.664254
v -0.399359 -1.075743 0.035746
v -0.399359 -0.375743 0.035746
v -0.399359 -1.075743 -0.664254
v -0.399359 -0.375743 -0.664254
v -1.099359 -0.918012 -0.121985
v -1.099359 -0.533474 -0.121985
v -1.099359 -0.533474 -0.506523
v -1.099359 -0.918012 -0.506523
v -1.008959 -0.918012 -0.121985
v -1.008959 -0.533474 -0.121985
v -1.008959 -0.533474 -0.506523
v -1.008959 -0.918012 -0.506523
vn -1.000000 -0.000000 0.000000
vn 0.000000 0.000000 -1.000000
vn 1.000000 0.000000 0.000000
vn 0.000000 0.000000 1.000000
vn 0.000000 -1.000000 0.000000
vn 0.000000 1.000000 0.000000
usemtl playerWheel_Main
s off
f 51//19 49//19 57//19 60//19
f 52//20 56//20 55//20 51//20
f 56//21 54//21 53//21 55//21
f 54//22 50//22 49//22 53//22
f 49//23 51//23 55//23 53//23
f 54//24 56//24 52//24 50//24
f 59//22 60//22 64//22 63//22
f 50//19 52//19 59//19 58//19
f 52//19 51//19 60//19 59//19
f 49//19 50//19 58//19 57//19
f 57//20 58//20 62//20 61//20
f 60//24 57//24 61//24 64//24
f 58//23 59//23 63//23 62//23
usemtl playerWheel_Inner
f 62//19 63//19 64//19 61//19
o Cube
v 1.000000 -1.000000 -1.000000
v 1.000000 -1.000000 2.222877
v -1.000000 -1.000000 2.222877
v -1.000000 -1.000000 -1.000000
v 1.000000 0.033298 -0.999999
v 0.999999 0.033298 2.222878
v -1.000000 0.033298 2.222877
v -1.000000 0.033298 -1.000000
v 1.000000 0.033298 -0.336000
v 0.999999 0.033298 1.242520
v -1.000000 0.033298 -0.336001
v -1.000000 0.033298 1.242519
v 1.000000 1.165036 -0.336000
v 0.999999 1.165036 1.242520
v -1.000000 1.165036 -0.336001
v -1.000000 1.165036 1.242519
v 1.000000 0.122358 -0.211782
v 0.999999 0.122358 1.118301
v 1.000000 1.075976 -0.211782
v 0.999999 1.075976 1.118301
v 0.896309 0.122358 -0.211782
v 0.896308 0.122358 1.118301
v 0.896309 1.075976 -0.211782
v 0.896308 1.075976 1.118301
v 0.827699 0.130799 -0.336000
v -0.827698 0.130799 -0.336001
v 0.827699 1.067536 -0.336000
v -0.827698 1.067536 -0.336001
v 0.827699 0.130799 -0.245016
v -0.827698 0.130799 -0.245016
v 0.827699 1.067536 -0.245016
v -0.827698 1.067536 -0.245016
v -1.000000 0.128172 1.110191
v -1.000000 0.128172 -0.203673
v -1.000000 1.070162 1.110191
v -1.000000 1.070162 -0.203673
v -0.911544 0.128172 1.110191
v -0.911544 0.128172 -0.203673
v -0.911544 1.070162 1.110191
v -0.911544 1.070162 -0.203673
v 0.830152 0.129410 1.242520
v -0.830153 0.129410 1.242519
v 0.830152 1.068925 1.242520
v -0.830153 1.068925 1.242519
v 0.830152 0.129410 1.129858
v -0.830153 0.129410 1.129857
v 0.830152 1.068925 1.129858
v -0.830153 1.068925 1.129857
v 0.000000 -1.000000 -1.000000
v 1.000000 -0.483351 -1.000000
v -1.000000 -0.483351 -1.000000
v 0.000000 0.033298 -1.000000
v 0.000000 -0.483351 -1.000000
v -0.500000 -1.000000 -1.000000
v 1.000000 -0.225026 -1.000000
v -1.000000 -0.225026 -1.000000
v -0.500000 0.033298 -1.000000
v 0.500000 -1.000000 -1.000000
v 1.000000 -0.741675 -1.000000
v -1.000000 -0.741675 -1.000000
v 0.500000 0.033298 -1.000000
v -0.500000 -0.483351 -1.000000
v 0.500000 -0.483351 -1.000000
v 0.000000 -0.225026 -1.000000
v 0.000000 -0.741675 -1.000000
v 0.500000 -0.741675 -1.000000
v 0.500000 -0.225026 -1.000000
v -0.500000 -0.225026 -1.000000
v -0.500000 -0.741675 -1.000000
v 1.000000 -0.741675 -1.116517
v 1.000000 -0.483351 -1.116517
v -1.000000 -0.741675 -1.116517
v -1.000000 -0.483351 -1.116517
v -0.500000 -0.483351 -1.116517
v 0.500000 -0.483351 -1.116517
v 0.000000 -0.483351 -1.116517
v 0.000000 -0.741675 -1.116517
v 0.500000 -0.741675 -1.116517
v -0.500000 -0.741675 -1.116517
v 1.000000 -0.225026 -1.069050
v 1.000000 0.033298 -1.069050
v -1.000000 -0.225026 -1.069051
v -1.000000 0.033298 -1.069050
v -0.500000 0.033298 -1.069050
v 0.500000 0.033298 -1.069050
v 0.500000 -0.225026 -1.069050
v -0.500000 -0.225026 -1.069050
vn 0.000000 -1.000000 0.000000
vn 0.000000 1.000000 0.000000
vn 1.000000 -0.000000 0.000000
vn -0.000000 -0.000000 1.000000
vn -1.000000 -0.000000 -0.000000
vn 0.000000 0.000000 -1.000000
usemtl playerBody_Main
s off
f 65//25 66//25 67//25 68//25 118//25 113//25 122//25
f 71//26 70//26 74//26 76//26
f 65//27 123//27 114//27 119//27 69//27 70//27 66//27
f 66//28 70//28 71//28 67//28
f 67//29 71//29 72//29 120//29 115//29 124//29 68//29
f 133//30 118//30 68//30 124//30
f 76//28 74//28 105//28 106//28
f 70//26 69//26 73//26 74//26
f 72//28 71//28 76//28 75//28
f 69//26 125//26 116//26 121//26 72//26 75//26 73//26
f 77//26 79//26 80//26 78//26
f 74//27 73//27 81//27 82//27
f 79//29 75//29 98//29 100//29
f 75//30 79//30 92//30 90//30
f 84//30 82//30 86//30 88//30
f 73//27 77//27 83//27 81//27
f 78//27 74//27 82//27 84//27
f 77//27 78//27 84//27 83//27
f 82//26 81//26 85//26 86//26
f 81//28 83//28 87//28 85//28
f 83//25 84//25 88//25 87//25
f 90//27 92//27 96//27 94//27
f 79//30 77//30 91//30 92//30
f 77//30 73//30 89//30 91//30
f 73//30 75//30 90//30 89//30
f 92//25 91//25 95//25 96//25
f 91//29 89//29 93//29 95//29
f 89//26 90//26 94//26 93//26
f 98//26 97//26 101//26 102//26
f 76//29 80//29 99//29 97//29
f 80//29 79//29 100//29 99//29
f 75//29 76//29 97//29 98//29
f 100//28 98//28 102//28 104//28
f 99//25 100//25 104//25 103//25
f 97//30 99//30 103//30 101//30
f 105//29 107//29 111//29 109//29
f 80//28 76//28 106//28 108//28
f 74//28 78//28 107//28 105//28
f 78//28 80//28 108//28 107//28
f 106//26 105//26 109//26 110//26
f 108//27 106//27 110//27 112//27
f 107//25 108//25 112//25 111//25
f 132//30 126//30 115//30 120//30
f 131//30 127//30 117//30 128//30
f 130//30 122//30 113//30 129//30
f 129//25 133//25 143//25 141//25
f 124//29 115//29 137//29 136//29
f 123//30 65//30 122//30 130//30
f 125//30 131//30 128//30 116//30
f 119//30 114//30 127//30 131//30
f 116//30 128//30 132//30 121//30
f 128//30 117//30 126//30 132//30
f 117//26 127//26 139//26 140//26
f 133//25 124//25 136//25 143//25
f 129//30 113//30 118//30 133//30
f 139//30 142//30 141//30 140//30
f 135//30 134//30 142//30 139//30
f 138//30 143//30 136//30 137//30
f 140//30 141//30 143//30 138//30
f 126//26 117//26 140//26 138//26
f 130//25 129//25 141//25 142//25
f 127//26 114//26 135//26 139//26
f 115//26 126//26 138//26 137//26
f 123//25 130//25 142//25 134//25
f 114//27 123//27 134//27 135//27
usemtl playerBody_Window
f 86//27 85//27 87//27 88//27
f 93//30 94//30 96//30 95//30
f 102//29 101//29 103//29 104//29
f 110//28 109//28 111//28 112//28
usemtl playerBody_Lights
f 132//25 120//25 146//25 151//25
f 121//27 132//27 151//27 148//27
f 145//30 144//30 150//30 149//30
f 148//30 151//30 146//30 147//30
f 131//29 125//29 149//29 150//29
f 125//26 69//26 145//26 149//26
f 69//27 119//27 144//27 145//27
f 72//26 121//26 148//26 147//26
f 119//25 131//25 150//25 144//25
f 120//29 72//29 147//29 146//29
