# Blender v2.75 (sub 0) OBJ File: 'tree2s3.blend'
# www.blender.org
mtllib tree2s3.mtl
o Cone.002_Cone
v 0.718106 1.896690 -0.327726
v 0.327726 1.896690 0.718106
v 0.000000 3.096509 0.000000
v -0.718106 1.896690 0.327726
v -0.327726 1.896690 -0.718106
vn -0.849400 0.421800 -0.317100
vn 0.849400 0.421800 0.317100
vn 0.317100 0.421800 -0.849400
vn -0.317100 0.421800 0.849400
vn 0.000000 -1.000000 0.000000
usemtl tree2_s3_leaws
s off
f 4//1 3//1 5//1
f 1//2 3//2 2//2
f 5//3 3//3 1//3
f 2//4 3//4 4//4
f 1//5 2//5 4//5 5//5
o Cone.001_Cone
v 0.448659 1.252760 -0.788450
v 0.788450 1.252760 0.448659
v 0.000000 2.631650 0.000000
v -0.448659 1.252760 0.788450
v -0.788450 1.252760 -0.448659
vn -0.874300 0.421800 0.240100
vn 0.874300 0.421800 -0.240100
vn -0.240100 0.421800 -0.874300
vn 0.240100 0.421800 0.874300
vn 0.000000 -1.000000 0.000000
usemtl tree2_s3_leaws
s off
f 9//6 8//6 10//6
f 6//7 8//7 7//7
f 10//8 8//8 6//8
f 7//9 8//9 9//9
f 6//10 7//10 9//10 10//10
o Cone
v 0.000000 0.564300 -1.000000
v 1.000000 0.564300 0.000000
v 0.000000 2.084300 0.000000
v -0.000000 0.564300 1.000000
v -1.000000 0.564300 -0.000000
vn -0.641100 0.421800 0.641100
vn 0.641100 0.421800 -0.641100
vn -0.641100 0.421800 -0.641100
vn 0.641100 0.421800 0.641100
vn 0.000000 -1.000000 0.000000
usemtl tree2_s3_leaws
s off
f 14//11 13//11 15//11
f 11//12 13//12 12//12
f 15//13 13//13 11//13
f 12//14 13//14 14//14
f 11//15 12//15 14//15 15//15
o Cylinder
v 0.000000 -0.679000 -0.133000
v 0.000000 0.679000 -0.133000
v 0.115181 -0.679000 0.066500
v 0.115181 0.679000 0.066500
v -0.115181 -0.679000 0.066500
v -0.115181 0.679000 0.066500
vn 0.866000 0.000000 -0.500000
vn -0.866000 0.000000 -0.500000
vn -0.000000 0.000000 1.000000
vn 0.000000 1.000000 0.000000
vn 0.000000 -1.000000 0.000000
usemtl tree2_s3_wood
s off
f 16//16 17//16 19//16 18//16
f 20//17 21//17 17//17 16//17
f 18//18 19//18 21//18 20//18
f 19//19 17//19 21//19
f 16//20 18//20 20//20
