# Blender v2.75 (sub 0) OBJ File: 'tree1s3.blend'
# www.blender.org
mtllib tree1s3.mtl
o Icosphere.004_Icosphere
v -0.552122 2.258193 -0.412646
v 0.311397 1.738502 -0.232596
v -0.346507 1.918303 0.530942
v -0.736849 2.855411 0.398146
v -0.320175 3.254761 -0.447475
v 0.327671 2.564471 -0.837286
v 0.660358 2.014530 0.689480
v 0.012513 2.704819 1.079291
v 0.028787 3.530789 0.474601
v 0.686691 3.350988 -0.288937
v 1.077033 2.413880 -0.156142
v 0.892306 3.011098 0.654651
vn -0.472800 -0.856800 -0.205600
vn -0.182400 -0.578500 -0.795100
vn -0.924400 -0.375700 0.066100
vn -0.913000 0.200100 -0.355400
vn -0.454400 0.074700 -0.887600
vn 0.519500 -0.511400 -0.684600
vn 0.049500 -0.961800 0.269200
vn -0.681100 -0.183300 0.708800
vn -0.662800 0.748300 0.026800
vn 0.079200 0.545500 -0.834300
vn 0.662800 -0.748300 -0.026800
vn -0.079200 -0.545500 0.834300
vn -0.519500 0.511400 0.684600
vn -0.049500 0.961800 -0.269200
vn 0.681100 0.183300 -0.708800
vn 0.913000 -0.200100 0.355400
vn 0.454400 -0.074700 0.887600
vn 0.182400 0.578500 0.795100
vn 0.472800 0.856800 0.205600
vn 0.924400 0.375700 -0.066100
usemtl tree1s3_leaves
s off
f 1//1 2//1 3//1
f 2//2 1//2 6//2
f 1//3 3//3 4//3
f 1//4 4//4 5//4
f 1//5 5//5 6//5
f 2//6 6//6 11//6
f 3//7 2//7 7//7
f 4//8 3//8 8//8
f 5//9 4//9 9//9
f 6//10 5//10 10//10
f 2//11 11//11 7//11
f 3//12 7//12 8//12
f 4//13 8//13 9//13
f 5//14 9//14 10//14
f 6//15 10//15 11//15
f 7//16 11//16 12//16
f 8//17 7//17 12//17
f 9//18 8//18 12//18
f 10//19 9//19 12//19
f 11//20 10//20 12//20
o Icosphere.003_Icosphere
v -1.170107 2.136322 -0.516280
v -0.896423 1.588825 -0.657939
v -0.981320 1.751387 -0.057034
v -0.884679 2.370228 -0.007803
v -0.740055 2.590121 -0.578293
v -0.747315 2.107187 -0.980092
v -0.441848 1.484354 -0.237010
v -0.434588 1.967289 0.164790
v -0.285480 2.485651 -0.157363
v -0.200584 2.323089 -0.758269
v -0.297224 1.704247 -0.807500
v -0.011797 1.938153 -0.299023
vn -0.895100 -0.445900 -0.005800
vn -0.730800 -0.196100 -0.653800
vn -0.886800 0.102600 0.450600
vn -0.717400 0.691500 0.084600
vn -0.621000 0.506800 -0.597900
vn -0.118000 -0.499500 -0.858300
vn -0.383800 -0.903600 0.190200
vn -0.370500 -0.016000 0.928700
vn -0.096400 0.936700 0.336600
vn 0.059600 0.637900 -0.767800
vn 0.096400 -0.936700 -0.336600
vn -0.059600 -0.637900 0.767800
vn 0.118000 0.499500 0.858300
vn 0.383800 0.903600 -0.190200
vn 0.370500 0.016000 -0.928700
vn 0.717400 -0.691500 -0.084600
vn 0.621000 -0.506800 0.597900
vn 0.730800 0.196100 0.653800
vn 0.895100 0.445900 0.005800
vn 0.886800 -0.102600 -0.450600
usemtl tree1s3_leaves
s off
f 13//21 14//21 15//21
f 14//22 13//22 18//22
f 13//23 15//23 16//23
f 13//24 16//24 17//24
f 13//25 17//25 18//25
f 14//26 18//26 23//26
f 15//27 14//27 19//27
f 16//28 15//28 20//28
f 17//29 16//29 21//29
f 18//30 17//30 22//30
f 14//31 23//31 19//31
f 15//32 19//32 20//32
f 16//33 20//33 21//33
f 17//34 21//34 22//34
f 18//35 22//35 23//35
f 19//36 23//36 24//36
f 20//37 19//37 24//37
f 21//38 20//38 24//38
f 22//39 21//39 24//39
f 23//40 22//40 24//40
o Icosphere.002_Icosphere
v 0.627476 1.925313 -0.690781
v 0.660994 2.265418 -0.856069
v 0.527586 1.970387 -1.054244
v 0.719323 1.660758 -0.947085
v 0.971231 1.764436 -0.682680
v 0.935179 2.138134 -0.626432
v 0.773556 2.211060 -1.214529
v 0.809608 1.837361 -1.270777
v 1.083793 1.710078 -1.041140
v 1.217200 2.005109 -0.842966
v 1.025464 2.314738 -0.950125
v 1.117311 2.050182 -1.206428
vn -0.930800 0.229900 0.284300
vn -0.457200 0.424800 0.781400
vn -0.863000 -0.472600 0.178600
vn -0.347500 -0.711900 0.610300
vn -0.096800 -0.157300 0.982800
vn 0.005200 0.877200 0.480100
vn -0.761000 0.561900 -0.324200
vn -0.651400 -0.574800 -0.495300
vn 0.182600 -0.962000 0.203200
vn 0.588400 -0.064600 0.806000
vn -0.182600 0.962000 -0.203200
vn -0.588400 0.064600 -0.806000
vn -0.005200 -0.877200 -0.480100
vn 0.761000 -0.561900 0.324200
vn 0.651400 0.574800 0.495300
vn 0.347500 0.711900 -0.610300
vn 0.096800 0.157300 -0.982800
vn 0.457200 -0.424800 -0.781400
vn 0.930800 -0.229900 -0.284300
vn 0.863000 0.472600 -0.178600
usemtl tree1s3_leaves
s off
f 25//41 26//41 27//41
f 26//42 25//42 30//42
f 25//43 27//43 28//43
f 25//44 28//44 29//44
f 25//45 29//45 30//45
f 26//46 30//46 35//46
f 27//47 26//47 31//47
f 28//48 27//48 32//48
f 29//49 28//49 33//49
f 30//50 29//50 34//50
f 26//51 35//51 31//51
f 27//52 31//52 32//52
f 28//53 32//53 33//53
f 29//54 33//54 34//54
f 30//55 34//55 35//55
f 31//56 35//56 36//56
f 32//57 31//57 36//57
f 33//58 32//58 36//58
f 34//59 33//59 36//59
f 35//60 34//60 36//60
o Cylinder.002_Cylinder
v 0.570463 1.561101 -0.586188
v 0.764888 1.793888 -0.787416
v 0.518506 1.615465 -0.573499
v 0.712931 1.848252 -0.774727
v 0.511428 1.569277 -0.633769
v 0.705853 1.802064 -0.834997
vn 0.500500 0.287800 0.816500
vn 0.339800 -0.761200 -0.552300
vn -0.840300 0.473500 -0.264200
vn 0.534200 0.639600 -0.552900
vn -0.534200 -0.639600 0.552800
usemtl tree1s3_wood
s off
f 37//61 38//61 40//61 39//61
f 41//62 42//62 38//62 37//62
f 39//63 40//63 42//63 41//63
f 40//64 38//64 42//64
f 37//65 39//65 41//65
o Cylinder.001_Cylinder
v -0.349494 1.431285 0.563886
v -0.587601 1.805834 1.020468
v -0.321773 1.337849 0.654992
v -0.559880 1.712397 1.111574
v -0.440066 1.337849 0.593302
v -0.678174 1.712397 1.049884
vn 0.903900 0.404400 0.139700
vn -0.631900 0.404400 -0.661200
vn -0.272000 -0.808700 0.521600
vn -0.373900 0.588200 0.717100
vn 0.373900 -0.588200 -0.717100
usemtl tree1s3_wood
s off
f 43//66 44//66 46//66 45//66
f 47//67 48//67 44//67 43//67
f 45//68 46//68 48//68 47//68
f 46//69 44//69 48//69
f 43//70 45//70 47//70
o Icosphere.001_Icosphere
v -0.409879 1.546552 1.221499
v -0.585944 1.633104 1.855970
v -1.038650 1.443319 1.408668
v -0.909380 1.759346 0.839050
v -0.376774 2.144446 0.934324
v -0.176886 2.066421 1.562812
v -1.194265 1.899389 1.865649
v -1.394153 1.977414 1.237160
v -0.985095 2.410731 0.944002
v -0.532389 2.600517 1.391305
v -0.661659 2.284489 1.960922
v -1.161161 2.497283 1.578473
vn 0.213900 -0.958200 0.190100
vn 0.786200 -0.544400 0.292400
vn -0.000900 -0.874300 -0.485300
vn 0.438700 -0.408700 -0.800300
vn 0.925100 -0.204800 -0.319700
vn 0.619000 -0.054300 0.783500
vn -0.307000 -0.723900 0.617900
vn -0.654600 -0.588200 -0.474900
vn 0.056700 0.165200 -0.984600
vn 0.843800 0.495200 -0.206900
vn -0.056700 -0.165200 0.984600
vn -0.843800 -0.495200 0.206900
vn -0.619000 0.054300 -0.783500
vn 0.307000 0.723900 -0.617900
vn 0.654600 0.588200 0.474900
vn -0.438700 0.408700 0.800300
vn -0.925100 0.204800 0.319700
vn -0.786200 0.544400 -0.292400
vn -0.213900 0.958200 -0.190100
vn 0.000900 0.874300 0.485300
usemtl tree1s3_leaves
s off
f 49//71 50//71 51//71
f 50//72 49//72 54//72
f 49//73 51//73 52//73
f 49//74 52//74 53//74
f 49//75 53//75 54//75
f 50//76 54//76 59//76
f 51//77 50//77 55//77
f 52//78 51//78 56//78
f 53//79 52//79 57//79
f 54//80 53//80 58//80
f 50//81 59//81 55//81
f 51//82 55//82 56//82
f 52//83 56//83 57//83
f 53//84 57//84 58//84
f 54//85 58//85 59//85
f 55//86 59//86 60//86
f 56//87 55//87 60//87
f 57//88 56//88 60//88
f 58//89 57//89 60//89
f 59//90 58//90 60//90
o Icosphere
v 0.000000 0.302840 -0.969253
v 0.890028 0.211889 -0.035356
v -0.339954 -0.103041 0.210694
v -1.100143 0.721444 -0.433465
v -0.339954 1.545930 -1.077623
v 0.890028 1.231000 -0.831573
v 0.339954 0.574278 1.077623
v -0.890028 0.889208 0.831573
v -0.890028 1.908319 0.035356
v 0.339954 2.223249 -0.210694
v 1.100143 1.398764 0.433465
v 0.000000 1.817368 0.969253
vn 0.187600 -0.944200 -0.270700
vn 0.607100 -0.489200 -0.626200
vn -0.491100 -0.770400 -0.406500
vn -0.491100 -0.208100 -0.845900
vn 0.187600 -0.034300 -0.981600
vn 0.982200 -0.115500 -0.147800
vn 0.303500 -0.851600 0.427300
vn -0.794600 -0.570500 0.207600
vn -0.794600 0.339500 -0.503300
vn 0.303500 0.620600 -0.723000
vn 0.794600 -0.339500 0.503300
vn -0.303500 -0.620600 0.723000
vn -0.982200 0.115500 0.147800
vn -0.303500 0.851600 -0.427300
vn 0.794600 0.570500 -0.207600
vn 0.491100 0.208100 0.845900
vn -0.187600 0.034300 0.981600
vn -0.607100 0.489200 0.626200
vn -0.187600 0.944200 0.270700
vn 0.491100 0.770400 0.406500
usemtl tree1s3_leaves
s off
f 61//91 62//91 63//91
f 62//92 61//92 66//92
f 61//93 63//93 64//93
f 61//94 64//94 65//94
f 61//95 65//95 66//95
f 62//96 66//96 71//96
f 63//97 62//97 67//97
f 64//98 63//98 68//98
f 65//99 64//99 69//99
f 66//100 65//100 70//100
f 62//101 71//101 67//101
f 63//102 67//102 68//102
f 64//103 68//103 69//103
f 65//104 69//104 70//104
f 66//105 70//105 71//105
f 67//106 71//106 72//106
f 68//107 67//107 72//107
f 69//108 68//108 72//108
f 70//109 69//109 72//109
f 71//110 70//110 72//110
o Cylinder
v 0.000000 -1.101498 -0.150000
v 0.000000 0.138502 -0.150000
v 0.129904 -1.101498 0.075000
v 0.129904 0.138502 0.075000
v -0.129904 -1.101498 0.075000
v -0.129904 0.138502 0.075000
vn 0.866000 0.000000 -0.500000
vn -0.866000 0.000000 -0.500000
vn -0.000000 0.000000 1.000000
vn 0.000000 1.000000 0.000000
vn 0.000000 -1.000000 0.000000
usemtl tree1s3_wood
s off
f 73//111 74//111 76//111 75//111
f 77//112 78//112 74//112 73//112
f 75//113 76//113 78//113 77//113
f 76//114 74//114 78//114
f 73//115 75//115 77//115
